<svg xmlns="http://www.w3.org/2000/svg" xmlns:xlink="http://www.w3.org/1999/xlink" viewBox="3619.581 2253.11 331.67 60.958"><defs><style>.a{fill:#ed1a62;stroke:#ed1a62;stroke-miterlimit:10;stroke-width:0.5px;}.b{fill:#fff;}.c{fill:#b0afb0;}.d{filter:url(#w);}.e{filter:url(#u);}.f{filter:url(#s);}.g{filter:url(#q);}.h{filter:url(#o);}.i{filter:url(#m);}.j{filter:url(#k);}.k{filter:url(#i);}.l{filter:url(#g);}.m{filter:url(#e);}.n{filter:url(#c);}.o{filter:url(#a);}</style><filter id="a" x="3855.421" y="2253.11" width="26.046" height="60.172" filterUnits="userSpaceOnUse"><feOffset dy="3" input="SourceAlpha"/><feGaussianBlur stdDeviation="3" result="b"/><feFlood flood-opacity="0.212"/><feComposite operator="in" in2="b"/><feComposite in="SourceGraphic"/></filter><filter id="c" x="3788.724" y="2261.868" width="50.808" height="51.863" filterUnits="userSpaceOnUse"><feOffset dy="3" input="SourceAlpha"/><feGaussianBlur stdDeviation="3" result="d"/><feFlood flood-opacity="0.212"/><feComposite operator="in" in2="d"/><feComposite in="SourceGraphic"/></filter><filter id="e" x="3820.65" y="2261.8" width="51.209" height="51.953" filterUnits="userSpaceOnUse"><feOffset dy="3" input="SourceAlpha"/><feGaussianBlur stdDeviation="3" result="f"/><feFlood flood-opacity="0.212"/><feComposite operator="in" in2="f"/><feComposite in="SourceGraphic"/></filter><filter id="g" x="3865.167" y="2261.8" width="51.016" height="51.933" filterUnits="userSpaceOnUse"><feOffset dy="3" input="SourceAlpha"/><feGaussianBlur stdDeviation="3" result="h"/><feFlood flood-opacity="0.212"/><feComposite operator="in" in2="h"/><feComposite in="SourceGraphic"/></filter><filter id="i" x="3899.864" y="2253.12" width="51.387" height="60.691" filterUnits="userSpaceOnUse"><feOffset dy="3" input="SourceAlpha"/><feGaussianBlur stdDeviation="3" result="j"/><feFlood flood-opacity="0.212"/><feComposite operator="in" in2="j"/><feComposite in="SourceGraphic"/></filter><filter id="k" x="3744.537" y="2253.409" width="33.671" height="59.623" filterUnits="userSpaceOnUse"><feOffset dy="3" input="SourceAlpha"/><feGaussianBlur stdDeviation="3" result="l"/><feFlood flood-opacity="0.212"/><feComposite operator="in" in2="l"/><feComposite in="SourceGraphic"/></filter><filter id="m" x="3681.306" y="2262.629" width="50.65" height="51.438" filterUnits="userSpaceOnUse"><feOffset dy="3" input="SourceAlpha"/><feGaussianBlur stdDeviation="3" result="n"/><feFlood flood-opacity="0.212"/><feComposite operator="in" in2="n"/><feComposite in="SourceGraphic"/></filter><filter id="o" x="3619.581" y="2253.409" width="33.671" height="59.623" filterUnits="userSpaceOnUse"><feOffset dy="3" input="SourceAlpha"/><feGaussianBlur stdDeviation="3" result="p"/><feFlood flood-opacity="0.212"/><feComposite operator="in" in2="p"/><feComposite in="SourceGraphic"/></filter><filter id="q" x="3671.775" y="2253.36" width="25.545" height="59.672" filterUnits="userSpaceOnUse"><feOffset dy="3" input="SourceAlpha"/><feGaussianBlur stdDeviation="3" result="r"/><feFlood flood-opacity="0.212"/><feComposite operator="in" in2="r"/><feComposite in="SourceGraphic"/></filter><filter id="s" x="3716.149" y="2261.832" width="45.766" height="51.199" filterUnits="userSpaceOnUse"><feOffset dy="3" input="SourceAlpha"/><feGaussianBlur stdDeviation="3" result="t"/><feFlood flood-opacity="0.212"/><feComposite operator="in" in2="t"/><feComposite in="SourceGraphic"/></filter><filter id="u" x="3635.105" y="2262.092" width="50.969" height="51.937" filterUnits="userSpaceOnUse"><feOffset dy="3" input="SourceAlpha"/><feGaussianBlur stdDeviation="3" result="v"/><feFlood flood-opacity="0.212"/><feComposite operator="in" in2="v"/><feComposite in="SourceGraphic"/></filter><filter id="w" x="3764.125" y="2261.72" width="41" height="50.571" filterUnits="userSpaceOnUse"><feOffset dy="3" input="SourceAlpha"/><feGaussianBlur stdDeviation="3" result="x"/><feFlood flood-opacity="0.212"/><feComposite operator="in" in2="x"/><feComposite in="SourceGraphic"/></filter></defs><g transform="translate(3561.75 2253.75)"><g transform="translate(0.25 0.25)"><g class="o" transform="matrix(1, 0, 0, 1, -3562, -2254)"><path class="a" d="M159.3,3a3.762,3.762,0,0,0-3.762,3.9h0V44.672h7.543V6.781A3.762,3.762,0,0,0,159.3,3Z" transform="translate(3709.13 2256.36)"/></g><g class="n" transform="matrix(1, 0, 0, 1, -3562, -2254)"><path class="a" d="M138.239,34.142a8.81,8.81,0,0,1-6.685-2.787,9.862,9.862,0,0,1-2.651-7.075,10.077,10.077,0,0,1,2.553-7.056,8.4,8.4,0,0,1,6.452-2.9,8.011,8.011,0,0,1,7.231,4.619h8.4a16.451,16.451,0,0,0-2.865-5.438,16.587,16.587,0,0,0-29.353,10.564,16.275,16.275,0,0,0,4.873,11.85,15.885,15.885,0,0,0,11.695,4.931,16.607,16.607,0,0,0,8.985-2.612,16.353,16.353,0,0,0,6.607-8.615h-8.4a7.913,7.913,0,0,1-6.841,4.522Z" transform="translate(3676.66 2260.63)"/></g><g class="m" transform="matrix(1, 0, 0, 1, -3562, -2254)"><path class="a" d="M154.21,7.461a15.593,15.593,0,0,0-11.695,4.97A16.568,16.568,0,0,0,137.7,24.379a16.061,16.061,0,0,0,4.814,11.695,15.827,15.827,0,0,0,11.695,4.834,15.476,15.476,0,0,0,9.414-3.021,14.833,14.833,0,0,0,5.672-7.8h-8.245a7.8,7.8,0,0,1-7,4.113,8.167,8.167,0,0,1-5.2-1.949,8.693,8.693,0,0,1-3.08-4.7h24.208a18.75,18.75,0,0,0,.429-3.742,15.9,15.9,0,0,0-4.834-11.519A15.456,15.456,0,0,0,154.21,7.461Zm-8.732,14.17a9.394,9.394,0,0,1,3.177-5.321,8.634,8.634,0,0,1,5.672-1.949,8.362,8.362,0,0,1,5.594,1.949,9.746,9.746,0,0,1,3.158,5.379Z" transform="translate(3692.2 2260.59)"/></g><g class="l" transform="matrix(1, 0, 0, 1, -3562, -2254)"><path class="a" d="M176.914,7.461a15.593,15.593,0,0,0-11.578,4.951,16.548,16.548,0,0,0-4.795,11.948,16.06,16.06,0,0,0,4.795,11.695,15.846,15.846,0,0,0,11.694,4.834,15.476,15.476,0,0,0,9.3-3.08,14.852,14.852,0,0,0,5.672-7.8h-8.245a7.8,7.8,0,0,1-7,4.113,8.167,8.167,0,0,1-5.2-1.949,8.712,8.712,0,0,1-3.1-4.7h24.169a18.987,18.987,0,0,0,.429-3.742,15.9,15.9,0,0,0-4.775-11.578A15.456,15.456,0,0,0,176.914,7.461Zm-8.732,14.17a9.4,9.4,0,0,1,3.177-5.321,8.635,8.635,0,0,1,5.672-1.949,8.381,8.381,0,0,1,5.594,1.949,9.745,9.745,0,0,1,3.158,5.379Z" transform="translate(3713.88 2260.59)"/></g><g class="k" transform="matrix(1, 0, 0, 1, -3562, -2254)"><path class="a" d="M206.68,16.736a14.618,14.618,0,0,0-11.051-4.873,12.786,12.786,0,0,0-9.745,3.9V6.776a3.771,3.771,0,0,0-7.543,0h0v27.4h0v9.882h7V40.4a13.644,13.644,0,0,0,10.428,4.795A14.423,14.423,0,0,0,206.758,40.4a16.684,16.684,0,0,0,4.463-11.792,16.684,16.684,0,0,0-4.541-11.87Zm-5.5,18.867a8.264,8.264,0,0,1-6.432,2.787,8.771,8.771,0,0,1-6.724-2.885,10.232,10.232,0,0,1-2.67-7.173,9.434,9.434,0,0,1,2.709-6.822,8.81,8.81,0,0,1,6.568-2.924,8.478,8.478,0,0,1,6.432,2.885,9.94,9.94,0,0,1,2.573,7A10.232,10.232,0,0,1,201.183,35.6Z" transform="translate(3730.77 2256.36)"/></g><g class="j" transform="matrix(1, 0, 0, 1, -3562, -2254)"><path class="b" d="M109.766,6.777h0a3.752,3.752,0,0,0-7.5,0v6.666H98.52v6.8H102.2v24.4h7.562v-24.4h4.424v-6.8h-4.424Z" transform="translate(3655.02 2256.38)"/></g><g class="i" transform="matrix(1, 0, 0, 1, -3562, -2254)"><path class="b" d="M98.728,24.117a19.042,19.042,0,0,1-.429,3.742H74.072a8.673,8.673,0,0,0,3.08,4.7,8.167,8.167,0,0,0,5.2,1.949,7.8,7.8,0,0,0,6.958-4.21h8.245a14.833,14.833,0,0,1-5.672,7.8,15.456,15.456,0,0,1-9.3,3.1A15.827,15.827,0,0,1,70.9,36.357a16.061,16.061,0,0,1-4.814-11.695A16.567,16.567,0,0,1,70.9,12.715a15.944,15.944,0,0,1,23-.117,15.9,15.9,0,0,1,4.834,11.519ZM73.819,21.875H91.361A9.745,9.745,0,0,0,88.2,16.5a8.342,8.342,0,0,0-5.594-1.949A8.654,8.654,0,0,0,76.918,16.5a9.4,9.4,0,0,0-3.1,5.379Z" transform="translate(3624.23 2260.87)"/></g><g class="h" transform="matrix(1, 0, 0, 1, -3562, -2254)"><path class="b" d="M45.637,6.777h0a3.752,3.752,0,0,0-7.5,0v6.666H34.41v6.8h3.684v24.4h7.562v-24.4h4.424v-6.8H45.637Z" transform="translate(3594.17 2256.38)"/></g><g class="g" transform="matrix(1, 0, 0, 1, -3562, -2254)"><path class="b" d="M64.972,3a3.762,3.762,0,0,0-3.781,3.9h0V44.672h7.543V6.781A3.762,3.762,0,0,0,64.972,3Z" transform="translate(3619.59 2256.36)"/></g><g class="f" transform="matrix(1, 0, 0, 1, -3562, -2254)"><path class="b" d="M110.414,15.266a11.461,11.461,0,0,0-4.463-5.087A12.143,12.143,0,0,0,99.363,8.23a11.7,11.7,0,0,0-8.479,3.9V11.076h0a3.469,3.469,0,1,0-6.919,0h0v29.47h7.562V25.655a20.913,20.913,0,0,1,.741-6.7,6.159,6.159,0,0,1,2.261-2.787A5.847,5.847,0,0,1,97.9,15.072q6.257,0,6.237,10.018V40.546H111.7V23.706a22.005,22.005,0,0,0-1.286-8.44Z" transform="translate(3641.19 2260.49)"/></g><g class="e" transform="matrix(1, 0, 0, 1, -3562, -2254)"><path class="b" d="M75.344,10.91a3.43,3.43,0,1,0-6.861,0h0v2.2A14.209,14.209,0,0,0,58,8.123a14.657,14.657,0,0,0-11.149,4.736,16.47,16.47,0,0,0-4.463,11.695A17.386,17.386,0,0,0,46.692,36.6a13.956,13.956,0,0,0,10.856,4.814,14.794,14.794,0,0,0,6.023-1.4,13.527,13.527,0,0,0,4.892-3.469v3.9h6.861V10.949h0ZM65.715,31.883a8.5,8.5,0,0,1-6.529,2.807,8.693,8.693,0,0,1-6.568-2.807A9.57,9.57,0,0,1,49.947,25,10.213,10.213,0,0,1,52.6,17.849a9.024,9.024,0,0,1,13.117-.117,9.745,9.745,0,0,1,2.573,6.978,10.213,10.213,0,0,1-2.573,7.173Z" transform="translate(3601.73 2260.61)"/></g><g class="d" transform="matrix(1, 0, 0, 1, -3562, -2254)"><path class="c" d="M128.158,33.058h-7.621a77.309,77.309,0,0,0,5.711-5.457A16.684,16.684,0,0,0,131.2,16.666a8.459,8.459,0,0,0-3.1-6.685,11.441,11.441,0,0,0-7.8-2.67,11.071,11.071,0,0,0-9.921,4.951A10.077,10.077,0,0,0,109,15.282a16.8,16.8,0,0,0-.409,2.943,4.058,4.058,0,0,0,0,.8v.565h0a3.908,3.908,0,1,0,7.8-.565v-.117c.312-2.885,1.52-4.366,3.625-4.366a2.924,2.924,0,0,1,2.183.858,3.1,3.1,0,0,1,.838,2.241,11.285,11.285,0,0,1-2.982,6.413,32.274,32.274,0,0,1-2.982,3.352,40.229,40.229,0,0,1-7,5.36l-1.247.76V39.86h19.315a3.43,3.43,0,0,0,0-6.861Z" transform="translate(3664.56 2260.43)"/></g></g></g></svg>