<svg xmlns="http://www.w3.org/2000/svg" viewBox="1882.75 2291.75 256.5 256.5"><defs><style>.a{fill:#ed1a62;stroke:#ed1a62;stroke-miterlimit:10;stroke-width:0.5px;}.b{fill:#fff;}</style></defs><g transform="translate(1883 2292)"><circle class="a" cx="128" cy="128" r="128"/><path class="b" d="M105.712,63.85l62.193-.19L117.6,100.177l19.3,59.055L86.6,122.715,36.387,159.327l19.3-59.055L5.29,63.755l62.193.1L86.6,4.7Z" transform="translate(42.639 37.618)"/><path d="M49.58,187.522A14.835,14.835,0,0,1,35.505,168.5l15.881-48.88L9.829,89.1A14.835,14.835,0,0,1,18.483,62.28H69.835L85.621,13.4A14.835,14.835,0,0,1,99.7,3.13h0A14.74,14.74,0,0,1,113.77,13.4l16.071,48.975h51.352a14.835,14.835,0,0,1,8.654,26.817L148.29,119.338l15.976,48.785a14.835,14.835,0,0,1-22.728,16.547L99.791,154.048,58.329,184.669a14.835,14.835,0,0,1-8.749,2.853Zm14.645-95.1,13.314,9.51a14.74,14.74,0,0,1,5.421,16.547l-5.04,15.6,13.218-9.51a14.835,14.835,0,0,1,17.4,0l13.314,9.51-5.135-15.6a14.835,14.835,0,0,1,5.421-16.547l13.314-9.51H118.905a14.74,14.74,0,0,1-14.074-10.27l-5.04-15.6-5.04,15.6a14.74,14.74,0,0,1-14.074,10.27H64.225Z" transform="translate(29.446 24.258)"/></g></svg>