<svg xmlns="http://www.w3.org/2000/svg" viewBox="2086 2940 43.855 60"><defs><style>.a{fill:#ff0392;}</style></defs><path class="a" d="M69.311,60H65.665a.619.619,0,0,1-.378-.129L48,46.546,30.717,59.871a.618.618,0,0,1-.378.129H26.694a.619.619,0,0,1-.378-1.11l18.85-14.531L30.128,32.767H28.757a2.686,2.686,0,0,1-2.683-2.683v-.229a2.686,2.686,0,0,1,2.683-2.683h.962V15.4a4.326,4.326,0,0,1-3.645-4.267V4.319A4.324,4.324,0,0,1,30.394,0H65.611A4.324,4.324,0,0,1,69.93,4.319v6.816A4.326,4.326,0,0,1,66.284,15.4v11.77h.962a2.686,2.686,0,0,1,2.683,2.683v.229a2.686,2.686,0,0,1-2.683,2.683H65.876L50.839,44.359,69.689,58.89A.619.619,0,0,1,69.311,60Zm-3.434-1.238h1.618L49.447,44.85a.619.619,0,0,1,0-.981l14.4-11.1H62.231L48.38,43.444a.618.618,0,0,1-.756,0L33.774,32.767H32.157l14.4,11.1a.619.619,0,0,1,0,.981L28.512,58.762h1.617l17.5-13.488a.618.618,0,0,1,.756,0ZM35.8,32.767l12.2,9.4,12.2-9.4Zm29.863-1.238h1.582a1.447,1.447,0,0,0,1.445-1.445v-.229a1.447,1.447,0,0,0-1.445-1.445H28.757a1.446,1.446,0,0,0-1.444,1.445v.229a1.446,1.446,0,0,0,1.444,1.445Zm-1.778-4.357h1.158V15.454H63.887Zm-30.532,0H62.649V15.454H33.356Zm-2.4,0h1.159V15.454H30.959Zm32.31-12.956h2.343a3.084,3.084,0,0,0,3.081-3.081V4.319a3.084,3.084,0,0,0-3.081-3.081H30.394a3.084,3.084,0,0,0-3.081,3.081v6.816a3.084,3.084,0,0,0,3.081,3.081H63.268ZM45.114,12.79a.619.619,0,0,1-.61-.724l.5-2.9-2.1-2.05a.619.619,0,0,1,.343-1.056l2.907-.422,1.3-2.634a.619.619,0,0,1,1.111,0l1.3,2.634,2.907.422a.619.619,0,0,1,.343,1.056L51,9.171l.5,2.9a.619.619,0,0,1-.9.653L48,11.352l-2.6,1.367A.618.618,0,0,1,45.114,12.79ZM48,10.034a.62.62,0,0,1,.288.071l1.778.935-.34-1.979a.621.621,0,0,1,.178-.548l1.438-1.4-1.987-.289a.619.619,0,0,1-.466-.339L48,4.681l-.888,1.8a.619.619,0,0,1-.467.339L44.66,7.11l1.438,1.4a.62.62,0,0,1,.178.548l-.34,1.979,1.778-.935A.621.621,0,0,1,48,10.034Z" transform="translate(2059.926 2940)"/></svg>