<svg xmlns="http://www.w3.org/2000/svg" viewBox="1887 2941 107.482 60"><defs><style>.a{fill:#ff0392;}</style></defs><g transform="translate(1790 2289)"><path class="a" d="M24.712,60h0a11.284,11.284,0,0,1-3.581-.582,21.433,21.433,0,0,1-11.748-9.23C3.238,39.987.927,24.806.9,24.654a.576.576,0,0,1,.352-.618,131.662,131.662,0,0,1,21.355-6.685A94.956,94.956,0,0,1,29.176.309a.578.578,0,0,1,.648-.293,131.4,131.4,0,0,1,30.249,11.5.576.576,0,0,1,.289.65c-.037.149-3.823,15.031-10.938,24.581a20.854,20.854,0,0,1-10.853,7.568,21.668,21.668,0,0,1-5.337,11.82A11.317,11.317,0,0,1,24.712,60ZM2.116,24.93c.429,2.566,2.816,15.634,8.255,24.662A20.3,20.3,0,0,0,21.5,58.324a10.137,10.137,0,0,0,3.215.523h0a10.164,10.164,0,0,0,7.655-3.475,20.3,20.3,0,0,0,5.181-13.159c.127-10.632-4.4-22.981-5.35-25.446q-.839.123-1.676.258l-.047.005c-2.413.387-4.86.852-7.276,1.381a.6.6,0,0,1-.1.013A130.541,130.541,0,0,0,2.116,24.93ZM38.263,35.252a48.107,48.107,0,0,1,.472,6.973c0,.27-.013.544-.029.833a19.662,19.662,0,0,0,9.795-7C54.8,27.6,58.452,14.829,59.13,12.318A130.267,130.267,0,0,0,29.994,1.245a94.6,94.6,0,0,0-6.115,15.831c1.969-.416,3.964-.789,5.948-1.114a4.133,4.133,0,0,1,.269-1.417c.023-.06.049-.119.076-.177l.021-.047a.576.576,0,0,1,.492-.339l6.285-.365a.573.573,0,0,1,.529.28,4.108,4.108,0,0,1,.317,3.583,4.154,4.154,0,0,1-3.186,2.6c.664,2.012,1.455,4.624,2.167,7.55a8.287,8.287,0,0,1,3.64,3.22,11.605,11.605,0,0,1,.881,1.522,11.018,11.018,0,0,1,1.254,6.219.576.576,0,0,1-1.053.21A16.016,16.016,0,0,0,38.3,35.281Zm-.235-1.582c.34.226.667.46.975.7a15.513,15.513,0,0,1,2.423,2.386,11.889,11.889,0,0,0-1.147-3.878,10.462,10.462,0,0,0-.793-1.369A8.241,8.241,0,0,0,37.142,29.1C37.494,30.669,37.792,32.2,38.029,33.67ZM32.779,15.577a.578.578,0,0,1,.363.333c.02.05.471,1.175,1.119,3.061a2.994,2.994,0,0,0,2.479-1.9,2.958,2.958,0,0,0-.072-2.282l-5.549.322a2.944,2.944,0,0,0-.131.667q.748-.115,1.5-.222a.587.587,0,0,1,.08-.006A.575.575,0,0,1,32.779,15.577ZM23.582,51.9a11.854,11.854,0,0,1-3.951-.774,13.767,13.767,0,0,1-1.916-.85,13.116,13.116,0,0,1-5.564-5.111.576.576,0,0,1,.729-.789,19.383,19.383,0,0,0,5.66,1.161,20.168,20.168,0,0,0,5.209-.54,20.171,20.171,0,0,0,4.766-2.169,19.364,19.364,0,0,0,4.3-3.864.576.576,0,0,1,1.027.312A13.115,13.115,0,0,1,31.622,46.5,13.8,13.8,0,0,1,30.4,48.2C28.245,50.756,26.142,51.9,23.582,51.9Zm-9.46-5.914a14.16,14.16,0,0,0,4.139,3.275,12.636,12.636,0,0,0,1.755.779,10.736,10.736,0,0,0,3.566.708c2.189,0,4.02-1.014,5.935-3.288a12.584,12.584,0,0,0,1.12-1.56,14.158,14.158,0,0,0,1.915-4.918A18.943,18.943,0,0,1,29.124,43.8a20.95,20.95,0,0,1-5.075,2.3,20.982,20.982,0,0,1-5.543.58A18.912,18.912,0,0,1,14.122,45.982Zm-1.9-7.788a.577.577,0,0,1-.291-.079A4.13,4.13,0,1,1,18,33.471c.015.055.027.11.037.166l.01.05a.576.576,0,0,1-.226.588l-5.265,3.81A.575.575,0,0,1,12.218,38.194Zm1.8-6.619a2.98,2.98,0,0,0-2.875,3.758A2.957,2.957,0,0,0,12.2,36.917l4.62-3.343A2.983,2.983,0,0,0,14.015,31.575Zm15.949,1.8-.055,0L23.44,32.75a.576.576,0,0,1-.492-.394l-.017-.05c-.018-.052-.036-.105-.051-.159a4.13,4.13,0,1,1,7.587.935A.578.578,0,0,1,29.964,33.376Zm-6.02-1.735,5.677.547a2.977,2.977,0,0,0-2.754-4.1,2.98,2.98,0,0,0-2.923,3.554ZM46.36,24.857a4.129,4.129,0,0,1-1.243-8.066.576.576,0,0,1,.581.141l4.456,4.447a.576.576,0,0,1,.143.579L50.284,22c-.019.063-.039.126-.062.188A4.154,4.154,0,0,1,46.36,24.857Zm-1.214-6.847A2.977,2.977,0,0,0,46.36,23.7a3,3,0,0,0,2.72-1.767Z" transform="translate(144.102 652)"/><path class="a" d="M69.311,60H65.665a.619.619,0,0,1-.378-.129L48,46.546,30.717,59.871a.618.618,0,0,1-.378.129H26.694a.619.619,0,0,1-.378-1.11l18.85-14.531L30.128,32.767H28.757a2.686,2.686,0,0,1-2.683-2.683v-.229a2.686,2.686,0,0,1,2.683-2.683h.962V15.4a4.326,4.326,0,0,1-3.645-4.267V4.319A4.324,4.324,0,0,1,30.394,0H65.611A4.324,4.324,0,0,1,69.93,4.319v6.816A4.326,4.326,0,0,1,66.284,15.4v11.77h.962a2.686,2.686,0,0,1,2.683,2.683v.229a2.686,2.686,0,0,1-2.683,2.683H65.876L50.839,44.359,69.689,58.89A.619.619,0,0,1,69.311,60Zm-3.434-1.238h1.618L49.447,44.85a.619.619,0,0,1,0-.981l14.4-11.1H62.231L48.38,43.444a.618.618,0,0,1-.756,0L33.774,32.767H32.157l14.4,11.1a.619.619,0,0,1,0,.981L28.512,58.762h1.617l17.5-13.488a.618.618,0,0,1,.756,0ZM35.8,32.767l12.2,9.4,12.2-9.4Zm29.863-1.238h1.582a1.447,1.447,0,0,0,1.445-1.445v-.229a1.447,1.447,0,0,0-1.445-1.445H28.757a1.446,1.446,0,0,0-1.444,1.445v.229a1.446,1.446,0,0,0,1.444,1.445Zm-1.778-4.357h1.158V15.454H63.887Zm-30.532,0H62.649V15.454H33.356Zm-2.4,0h1.159V15.454H30.959Zm32.31-12.956h2.343a3.084,3.084,0,0,0,3.081-3.081V4.319a3.084,3.084,0,0,0-3.081-3.081H30.394a3.084,3.084,0,0,0-3.081,3.081v6.816a3.084,3.084,0,0,0,3.081,3.081H63.268ZM45.114,12.79a.619.619,0,0,1-.61-.724l.5-2.9-2.1-2.05a.619.619,0,0,1,.343-1.056l2.907-.422,1.3-2.634a.619.619,0,0,1,1.111,0l1.3,2.634,2.907.422a.619.619,0,0,1,.343,1.056L51,9.171l.5,2.9a.619.619,0,0,1-.9.653L48,11.352l-2.6,1.367A.618.618,0,0,1,45.114,12.79ZM48,10.034a.62.62,0,0,1,.288.071l1.778.935-.34-1.979a.621.621,0,0,1,.178-.548l1.438-1.4-1.987-.289a.619.619,0,0,1-.466-.339L48,4.681l-.888,1.8a.619.619,0,0,1-.467.339L44.66,7.11l1.438,1.4a.62.62,0,0,1,.178.548l-.34,1.979,1.778-.935A.621.621,0,0,1,48,10.034Z" transform="translate(70.926 652)"/></g></svg>