<svg xmlns="http://www.w3.org/2000/svg" viewBox="-458 231 125.753 80"><defs><style>.a{fill:#fff;}</style></defs><path class="a" d="M40.005,38.645V52.368H62.719c-.906,5.895-6.864,17.265-22.693,17.265A25.273,25.273,0,0,1,40.01,19.1a22.52,22.52,0,0,1,15.955,6.172L66.827,14.82a38.318,38.318,0,0,0-26.8-10.453,40,40,0,1,0-.021,80c23.107,0,38.418-16.233,38.418-39.094a36.472,36.472,0,0,0-.629-6.628H40.005Zm85.748,0H114.315V27.207H102.877V38.645H91.444V50.073h11.444V61.517h11.47V50.073h11.4" transform="translate(-458 226.633)"/></svg>