<svg xmlns="http://www.w3.org/2000/svg" viewBox="-294 231 80 80"><defs><style>.a{fill:#fff;}</style></defs><path class="a" d="M40,0C29.133,0,27.777.05,23.51.24A29.5,29.5,0,0,0,13.8,2.1,19.588,19.588,0,0,0,6.713,6.713,19.517,19.517,0,0,0,2.1,13.8,29.409,29.409,0,0,0,.24,23.51C.04,27.777,0,29.133,0,40S.05,52.223.24,56.49A29.513,29.513,0,0,0,2.1,66.2a19.616,19.616,0,0,0,4.613,7.087A19.56,19.56,0,0,0,13.8,77.9a29.532,29.532,0,0,0,9.71,1.86c4.267.2,5.623.24,16.49.24s12.223-.05,16.49-.24A29.6,29.6,0,0,0,66.2,77.9,20.442,20.442,0,0,0,77.9,66.2a29.513,29.513,0,0,0,1.86-9.71c.2-4.267.24-5.623.24-16.49s-.05-12.223-.24-16.49A29.581,29.581,0,0,0,77.9,13.8a19.632,19.632,0,0,0-4.613-7.087A19.489,19.489,0,0,0,66.2,2.1,29.427,29.427,0,0,0,56.49.24C52.223.04,50.867,0,40,0Zm0,7.2c10.677,0,11.95.053,16.167.237A22.038,22.038,0,0,1,63.59,8.82a13.163,13.163,0,0,1,7.593,7.59,22.085,22.085,0,0,1,1.377,7.423c.19,4.22.233,5.487.233,16.167s-.05,11.95-.247,16.167a22.511,22.511,0,0,1-1.4,7.423,12.7,12.7,0,0,1-3,4.607,12.479,12.479,0,0,1-4.6,2.987A22.247,22.247,0,0,1,56.1,72.56c-4.247.19-5.5.233-16.2.233s-11.953-.05-16.2-.247a22.681,22.681,0,0,1-7.453-1.4,12.387,12.387,0,0,1-4.6-3,12.146,12.146,0,0,1-3-4.6,22.7,22.7,0,0,1-1.4-7.45c-.15-4.2-.2-5.5-.2-16.147s.053-11.953.2-16.2a22.675,22.675,0,0,1,1.4-7.447,11.857,11.857,0,0,1,3-4.6A11.831,11.831,0,0,1,16.25,8.7a22.139,22.139,0,0,1,7.4-1.4c4.25-.15,5.5-.2,16.2-.2l.15.1Zm0,12.26A20.54,20.54,0,1,0,60.54,40,20.539,20.539,0,0,0,40,19.46Zm0,33.873A13.333,13.333,0,1,1,53.333,40,13.33,13.33,0,0,1,40,53.333ZM66.153,18.65a4.8,4.8,0,1,1-4.8-4.8A4.8,4.8,0,0,1,66.153,18.65Z" transform="translate(-294 231)"/></svg>