<svg xmlns="http://www.w3.org/2000/svg" viewBox="-173 231 98.43 80"><defs><style>.a{fill:#fff;}</style></defs><path class="a" d="M98.238,11.773a41.013,41.013,0,0,1-11.586,3.178A20.334,20.334,0,0,0,95.523,3.784,41.679,41.679,0,0,1,82.7,8.64a20.171,20.171,0,0,0-34.9,13.771,20.648,20.648,0,0,0,.521,4.61A57.148,57.148,0,0,1,6.726,6a19.775,19.775,0,0,0-2.731,10.15,20.181,20.181,0,0,0,8.973,16.8A20.113,20.113,0,0,1,3.83,30.421v.25a20.189,20.189,0,0,0,16.183,19.8,20.363,20.363,0,0,1-9.072.349A20.246,20.246,0,0,0,29.823,64.829,40.47,40.47,0,0,1,4.8,73.461,42.83,42.83,0,0,1,0,73.187a57.4,57.4,0,0,0,30.992,9.059C68.123,82.246,88.4,51.5,88.4,24.888c0-.857,0-1.722-.062-2.584A40.748,40.748,0,0,0,98.43,11.855l-.193-.082Z" transform="translate(-173 228.754)"/></svg>