<svg xmlns="http://www.w3.org/2000/svg" viewBox="1882 1211 52 52"><defs><style>.a{fill:#ff0392;}.b{fill:rgba(0,0,0,0);}</style></defs><g transform="translate(1882 1211)"><path class="a" d="M38.467,48.043a3.207,3.207,0,0,1-1.791-.549L25.9,40.272a.318.318,0,0,0-.361,0L14.764,47.495a3.207,3.207,0,0,1-4.882-3.481l3.539-12.48a.332.332,0,0,0-.116-.347L3.107,23.17a3.207,3.207,0,0,1,1.863-5.778l13-.491a.332.332,0,0,0,.289-.217L22.737,4.508a3.207,3.207,0,0,1,6.023,0l4.478,12.177a.332.332,0,0,0,.289.217l13,.491a3.207,3.207,0,0,1,1.863,5.778l-10.2,8.017a.318.318,0,0,0-.116.347l3.539,12.48a3.221,3.221,0,0,1-3.149,4.03ZM25.727,37.326a3.192,3.192,0,0,1,1.777.607L38.28,45.155a.318.318,0,0,0,.491-.361l-3.539-12.48a3.192,3.192,0,0,1,1.112-3.394l10.2-8.017a.318.318,0,0,0-.188-.578l-13-.491a3.207,3.207,0,0,1-2.889-2.109L25.987,5.548a.318.318,0,0,0-.607,0L20.946,17.71a3.207,3.207,0,0,1-2.889,2.109l-13,.491a.318.318,0,0,0-.188.578l10.212,8.031a3.207,3.207,0,0,1,1.112,3.394L12.67,44.793a.3.3,0,0,0,.116.347.289.289,0,0,0,.376,0l10.776-7.222a3.207,3.207,0,0,1,1.777-.534Z" transform="translate(0.807 1.068)"/><rect class="b" width="52" height="52"/></g></svg>