<svg xmlns="http://www.w3.org/2000/svg" viewBox="1990 1139 52 52"><defs><style>.a{fill:#ff0392;}.b{fill:rgba(0,0,0,0);}</style></defs><g transform="translate(1990 1139)"><path class="a" d="M45.333,4H4.889A2.889,2.889,0,0,0,2,6.889V41.556a2.889,2.889,0,0,0,2.889,2.889H45.333a2.889,2.889,0,0,0,2.889-2.889V6.889A2.889,2.889,0,0,0,45.333,4ZM4.889,41.556V6.889H45.333V41.556Z" transform="translate(0.889 1.778)"/><path class="a" d="M10.253,16.667A4.333,4.333,0,1,0,5.92,12.333a4.333,4.333,0,0,0,4.333,4.333Zm0-6.644a2.3,2.3,0,1,0,0,.014Z" transform="translate(2.631 3.556)"/><path class="a" d="M30.273,15.5l-7.8,7.8L16.7,17.521a1.444,1.444,0,0,0-2.037,0L5.92,26.376v4.088l9.808-9.808,4.752,4.68-5.417,5.417h3.972L31.241,18.547,40.7,27.965V23.891L32.31,15.5A1.444,1.444,0,0,0,30.273,15.5Z" transform="translate(2.631 6.702)"/><rect class="b" width="52" height="52"/></g></svg>