<svg xmlns="http://www.w3.org/2000/svg" viewBox="1990 993 52 52"><defs><style>.a{fill:#ff0392;}.b{fill:rgba(0,0,0,0);}</style></defs><g transform="translate(1990 993)"><circle class="a" cx="2.022" cy="2.022" r="2.022" transform="translate(23.877 15.167)"/><path class="a" d="M24.111,26.556H21.222V15H16.889a1.444,1.444,0,1,0,0,2.889h1.444v8.667H15.444a1.444,1.444,0,0,0,0,2.889h8.667a1.444,1.444,0,0,0,0-2.889Z" transform="translate(6.222 6.667)"/><path class="a" d="M23.333,6A17.333,17.333,0,1,0,40.667,23.333,17.333,17.333,0,0,0,23.333,6Zm0,31.778A14.444,14.444,0,1,1,37.778,23.333,14.444,14.444,0,0,1,23.333,37.778Z" transform="translate(2.667 2.667)"/><rect class="b" width="52" height="52"/></g></svg>