<svg xmlns="http://www.w3.org/2000/svg" viewBox="1882 1357 52 52"><defs><style>.a{fill:#ff0392;}.b{fill:rgba(0,0,0,0);}</style></defs><g transform="translate(1882 1357)"><path class="a" d="M47.027,41.466,37.291,15.74a2.889,2.889,0,0,0-3.727-1.676L29,15.783V11.551a2.773,2.773,0,0,0-2.773-2.773H18.889v-3A2.773,2.773,0,0,0,16.116,3H5.889A2.889,2.889,0,0,0,3,5.889v39a1.444,1.444,0,0,0,1.444,1.444H27.556A1.444,1.444,0,0,0,29,44.889V26.5l7.222,19.081a1.444,1.444,0,0,0,1.863.838l8.1-3.091a1.444,1.444,0,0,0,.838-1.863ZM16,11.421V43.444H5.889V5.889H16ZM26.111,43.444H18.889V11.667h7.222ZM38.4,43.083l-9.216-24.31,5.4-2.051,9.23,24.31Z" transform="translate(1.333 1.333)"/><rect class="b" width="52" height="52"/></g></svg>