<svg xmlns="http://www.w3.org/2000/svg" viewBox="1990 1066 52 52"><defs><style>.a{fill:#ff0392;}.b{fill:rgba(0,0,0,0);}</style></defs><g transform="translate(1990 1066)"><path class="a" d="M40.086,46.9H7.47A2.456,2.456,0,0,1,5,44.456V7.449A2.528,2.528,0,0,1,7.889,5.008h2.889V7.9H7.889V44.008H39.667V7.9H36.778V5.008h3.25a2.456,2.456,0,0,1,2.528,2.441V44.456A2.456,2.456,0,0,1,40.086,46.9Z" transform="translate(2.222 2.214)"/><path class="a" d="M19.147,30.96,11.4,23.218A1.444,1.444,0,0,1,13.456,21.2l5.691,5.691,12.48-12.48a1.444,1.444,0,0,1,2.037,2.037Z" transform="translate(4.917 6.249)"/><path class="a" d="M33.111,15H10V9.7a3.38,3.38,0,0,1,3.366-3.366h2.586a5.778,5.778,0,0,1,11.194,0h2.586A3.38,3.38,0,0,1,33.111,9.7ZM12.889,12.115H30.222V9.7a.477.477,0,0,0-.477-.477h-5.3V7.781a2.889,2.889,0,1,0-5.778,0V9.226h-5.3a.477.477,0,0,0-.477.477Z" transform="translate(4.444 0.885)"/><rect class="b" width="52" height="52"/></g></svg>