<svg xmlns="http://www.w3.org/2000/svg" viewBox="1990 1211 52 52"><defs><style>.a{fill:#ff0392;}.b{fill:rgba(0,0,0,0);}</style></defs><g transform="translate(1990 1211)"><path class="a" d="M20.078,21.611A7.006,7.006,0,1,0,13,14.533,7.089,7.089,0,0,0,20.078,21.611Zm-.144-11.122h0a4.192,4.192,0,0,1,4.189,4.189,4.117,4.117,0,0,1-8.233,0A4.164,4.164,0,0,1,19.933,10.489Z" transform="translate(5.778 3.378)"/><path class="a" d="M36.567,17.814A14.3,14.3,0,0,0,26.456,14.2H25.3A9.631,9.631,0,0,1,24,17.237a14.014,14.014,0,0,1,2.456-.144A12.014,12.014,0,0,1,34.111,19.4V29.8H37V18.248Z" transform="translate(10.667 6.308)"/><path class="a" d="M24.022,9.356a3.528,3.528,0,1,1,6.5,2.744,3.605,3.605,0,0,1-3.178,2.167,2.458,2.458,0,0,1-1.011-.144,10.233,10.233,0,0,1,.144,2.022v.867c.289,0,.578.144.867.144A6.428,6.428,0,0,0,27.489,4.3,6.194,6.194,0,0,0,22,7.478,6.167,6.167,0,0,1,24.022,9.356Z" transform="translate(9.778 1.911)"/><path class="a" d="M16,17.337A9.63,9.63,0,0,1,14.7,14.3H13.544A14.863,14.863,0,0,0,3.433,17.77L3,18.2V29.759H5.889v-10.4a12.278,12.278,0,0,1,7.656-2.311A12.721,12.721,0,0,1,16,17.337Z" transform="translate(1.333 6.352)"/><path class="a" d="M12.28,17.036a1.832,1.832,0,0,0,.867-.144v-.867A8.883,8.883,0,0,1,13.292,14a2.458,2.458,0,0,1-1.011.144,3.467,3.467,0,1,1,0-6.933A3.649,3.649,0,0,1,15.6,9.38a14.38,14.38,0,0,1,2.167-2.022,6.416,6.416,0,1,0-5.489,9.678Z" transform="translate(2.597 1.886)"/><path class="a" d="M33.256,24.347l-.289-.433A14.579,14.579,0,0,0,21.7,19a14.88,14.88,0,0,0-11.411,4.911L10,24.347V35.325a2.435,2.435,0,0,0,2.456,2.456H30.944A2.531,2.531,0,0,0,33.4,35.325h0V24.347ZM30.367,34.891H12.889V25.358A12.327,12.327,0,0,1,21.7,21.891a11.65,11.65,0,0,1,8.667,3.467Z" transform="translate(4.444 8.442)"/><rect class="b" width="52" height="52"/></g></svg>