<svg xmlns="http://www.w3.org/2000/svg" viewBox="1882 1284 52 52"><defs><style>.a{fill:#ff0392;}.b{fill:rgba(0,0,0,0);}</style></defs><g transform="translate(1882 1284)"><path class="a" d="M21.111,23.222A10.111,10.111,0,1,0,11,13.111,10.111,10.111,0,0,0,21.111,23.222Zm0-17.333a7.222,7.222,0,1,1-7.222,7.222A7.222,7.222,0,0,1,21.111,5.889Z" transform="translate(4.889 1.333)"/><path class="a" d="M41.79,26.755a24.787,24.787,0,0,0-36.01,0A2.889,2.889,0,0,0,5,28.734v7.6a2.889,2.889,0,0,0,2.889,2.889H39.667a2.889,2.889,0,0,0,2.889-2.889v-7.6a2.889,2.889,0,0,0-.766-1.979Zm-2.123,9.577H7.889V28.72a21.912,21.912,0,0,1,31.778,0h0Z" transform="translate(2.222 8.446)"/><rect class="b" width="52" height="52"/></g></svg>