<svg xmlns="http://www.w3.org/2000/svg" viewBox="1990 1284 52 52"><defs><style>.a{fill:#ff0392;}.b{fill:rgba(0,0,0,0);}</style></defs><g transform="translate(1990 1284)"><path class="a" d="M48.222,12.269a3.048,3.048,0,0,0-1.676-2.744,2.889,2.889,0,0,0-3.077.217l-6.8,4.348v-5.2A2.889,2.889,0,0,0,33.778,6h-26A5.778,5.778,0,0,0,2,11.778V34.889a5.778,5.778,0,0,0,5.778,5.778h26a2.889,2.889,0,0,0,2.889-2.889v-5.2l6.7,4.333a2.99,2.99,0,0,0,3.178.289,3.048,3.048,0,0,0,1.676-2.8Zm-2.99,22.288a.38.38,0,0,1-.274-.087l-11.18-7.136V37.778h-26a2.889,2.889,0,0,1-2.889-2.889V11.778A2.889,2.889,0,0,1,7.778,8.889h26V19.332L45.044,12.11a.2.2,0,0,1,.289.159V34.4a.159.159,0,0,1-.1.159Z" transform="translate(0.889 2.667)"/><rect class="b" width="52" height="52"/></g></svg>